# xmcd CD database file
#
# Track frame offsets:
#	150
#	18904
#	37339
#	58951
#	81039
#	103765
#	129822
#	142270
#	159716
#	181155
#	203638
#	223950
#
# Disc length: 3304 seconds
#
# Revision: 3
# Processed by: cddbd v1.5.2PL0 Copyright (c) Steve Scherf et al.
# Submitted via: CDex 1.77
#
DISCID=b10ce60c
DTITLE=Diana Krall - Quiet Nights
DYEAR=2009
DGENRE=Jazz
TTITLE0=Where or When
TTITLE1=Too Marvelous for Words
TTITLE2=I've Grown Accustomed to His Face
TTITLE3=The Boy from Ipanema
TTITLE4=Walk on By
TTITLE5=You're My Thrill
TTITLE6=Este seu olhar
TTITLE7=So Nice
TTITLE8=Quiet Nights
TTITLE9=Guess I'll Hang My Tears Out to Dry
TTITLE10=How Can You Mend a Broken Heart
TTITLE11=Every Time We Say Goodbye
EXTD=YEAR: 2009
EXTT0=
EXTT1=
EXTT2=
EXTT3=
EXTT4=
EXTT5=
EXTT6=
EXTT7=
EXTT8=
EXTT9=
EXTT10=
EXTT11=
PLAYORDER=
